<svg id="Capa_1" data-name="Capa 1" xmlns="http://www.w3.org/2000/svg" viewBox="0 0 46.07 44.17"><defs><style>.cls-1{fill:#a6a8ab;}</style></defs><title>Linkedin</title><path class="cls-1" d="M42.31,55.58h9.24A1.49,1.49,0,0,0,53,54.09V38.16c0-4.47-1.16-8-3.44-10.46a11.45,11.45,0,0,0-8.69-3.53,10.76,10.76,0,0,0-6.84,2.16v0a1.48,1.48,0,0,0-1.49-1.49H23.35a1.47,1.47,0,0,0-1.08.46,1.48,1.48,0,0,0-.41,1.1c.11,2.53,0,27.46,0,27.71a1.44,1.44,0,0,0,.43,1,1.46,1.46,0,0,0,1.06.44h9.23a1.48,1.48,0,0,0,1.49-1.49V38.57a5,5,0,0,1,.2-1.69,3.64,3.64,0,0,1,3.36-2.45c.87,0,3.19,0,3.19,4.8V54.09a1.48,1.48,0,0,0,1.49,1.49ZM37.63,31.45a6.49,6.49,0,0,0-6.12,4.31,7.25,7.25,0,0,0-.42,2.81v14H24.85c0-4.81.07-19.65,0-24.8h6.22v2.44a1.5,1.5,0,0,0,1.07,1.43,1.48,1.48,0,0,0,1.67-.62,7.68,7.68,0,0,1,7.08-3.9c5.81,0,9.15,4,9.15,11V52.6H43.8V39.23a9.45,9.45,0,0,0-1.35-5.39,5.54,5.54,0,0,0-4.82-2.39Zm0,0" transform="translate(-6.96 -11.42)"/><path class="cls-1" d="M20.33,17.68c-.07-3.69-2.81-6.26-6.65-6.26S7,14.06,7,17.71A6.24,6.24,0,0,0,13.56,24h.06c3.89,0,6.71-2.65,6.71-6.29v0ZM13.62,21h-.06A3.28,3.28,0,0,1,10,17.71c0-2,1.49-3.31,3.73-3.31s3.62,1.27,3.67,3.32S15.84,21,13.62,21Zm0,0" transform="translate(-6.96 -11.42)"/><path class="cls-1" d="M9,24.82a1.48,1.48,0,0,0-1.49,1.49V54.09A1.48,1.48,0,0,0,9,55.58h9.24a1.49,1.49,0,0,0,1.49-1.49V26.31a1.49,1.49,0,0,0-1.49-1.49ZM16.75,52.6H10.49V27.8h6.26Zm0,0" transform="translate(-6.96 -11.42)"/></svg>