<svg id="Capa_1" data-name="Capa 1" xmlns="http://www.w3.org/2000/svg" viewBox="0 0 41.88 41.56"><defs><style>.cls-1{fill:#a6a8ab;}</style></defs><title>whatsapp</title><path class="cls-1" d="M50.94,33.5A21,21,0,0,1,19.88,51.69l-7.64,2.43a2.1,2.1,0,0,1-2.62-2.67l2.44-7.22a20.64,20.64,0,0,1-3-10.73,20.94,20.94,0,0,1,41.88,0ZM30,16A17.56,17.56,0,0,0,12.39,33.5a17.28,17.28,0,0,0,3.36,10.25l-1.71,5a.77.77,0,0,0,1,1l5.31-1.69A17.52,17.52,0,1,0,30,16ZM40.58,38.29c-.13-.22-.47-.34-1-.6s-3-1.48-3.5-1.65-.82-.26-1.16.26-1.32,1.65-1.63,2-.6.38-1.11.13a14.22,14.22,0,0,1-4.13-2.52,15.58,15.58,0,0,1-2.86-3.54c-.29-.51,0-.78.23-1s.52-.6.77-.9a3.37,3.37,0,0,0,.51-.85.93.93,0,0,0,0-.89c-.13-.25-1.15-2.76-1.58-3.78s-.86-.85-1.16-.85-.63,0-1,0a1.86,1.86,0,0,0-1.37.64,5.69,5.69,0,0,0-1.8,4.25,9.91,9.91,0,0,0,2.1,5.27c.26.33,3.56,5.65,8.77,7.68s5.23,1.36,6.16,1.28,3-1.23,3.47-2.42a4.22,4.22,0,0,0,.3-2.43Zm0,0" transform="translate(-9.06 -12.72)"/></svg>