<svg id="Capa_1" data-name="Capa 1" xmlns="http://www.w3.org/2000/svg" viewBox="0 0 183.39 54.31"><defs><style>.cls-1{fill:#b0b0b0;}</style></defs><title>code</title><circle class="cls-1" cx="12" cy="39.2" r="12"/><path class="cls-1" d="M45.06,9.5a9.46,9.46,0,0,1,6.58,2.37,9.18,9.18,0,0,1,2.88,6.39l0,.56h6.32l-.06-.65a16.06,16.06,0,0,0-5-10.85A15.41,15.41,0,0,0,45,3.19,15.69,15.69,0,0,0,31.86,9.72C28.63,14,27,19.85,27,27.11s1.63,13.1,4.86,17.38A15.67,15.67,0,0,0,45,51a15.34,15.34,0,0,0,10.93-4.1c2.87-2.72,4.52-6.59,4.88-11.52l0-.65H54.56l0,.56a10.42,10.42,0,0,1-2.88,7A9.33,9.33,0,0,1,45,44.72a9.68,9.68,0,0,1-8.44-4.48c-2.12-3-3.19-7.46-3.19-13.13S34.41,17,36.54,14A9.8,9.8,0,0,1,45.06,9.5Z" transform="translate(-1)"/><path class="cls-1" d="M128.77,3.2h-12.2V51.12h12.2C141.53,51.12,148,43,148,26.9,148,11.17,141.53,3.2,128.77,3.2ZM122.59,10h6.08c5.09,0,8.58,1.45,10.38,4.31s2.78,7.18,2.78,12.61c0,5.59-.94,10-2.8,13s-5.29,4.45-10.36,4.45h-6.08Z" transform="translate(-1)"/><polygon class="cls-1" points="159.42 44.35 159.42 29.68 180.99 29.68 180.99 22.83 159.42 22.83 159.42 9.7 182.48 9.7 182.48 2.85 153 2.85 153 51.2 183.39 51.2 183.39 44.35 159.42 44.35"/><path class="cls-1" d="M82,.15,63,19.49A2.27,2.27,0,0,0,62.31,21L62,26.77a2.32,2.32,0,0,0,.52,1.6l16.64,20a.5.5,0,0,0,.87-.3l.42-6.87a.5.5,0,0,0-.13-.37l-14.07-16,16-16.25a.53.53,0,0,0,.15-.33L82.88.55A.49.49,0,0,0,82,.15Z" transform="translate(-1)"/><path class="cls-1" d="M97.45,4l16.11,22a2.28,2.28,0,0,1,.43,1.54l-.48,5.81a2.25,2.25,0,0,1-.74,1.5L93.44,52.12a.5.5,0,0,1-.82-.43l.57-6.86a.54.54,0,0,1,.18-.35l16.22-13.74L96.07,12.24a.52.52,0,0,1-.1-.34l.59-7.68A.49.49,0,0,1,97.45,4Z" transform="translate(-1)"/><path class="cls-1" d="M90.26,1,82.12,53.83a.41.41,0,0,0,.39.48h2.56a.41.41,0,0,0,.4-.35L93.59,1.17A.4.4,0,0,0,93.2.7H90.65A.4.4,0,0,0,90.26,1Z" transform="translate(-1)"/></svg>