<svg id="Capa_1" data-name="Capa 1" xmlns="http://www.w3.org/2000/svg" viewBox="0 0 221.96 81.9"><defs><style>.cls-1{fill:#b0b0b0;}</style></defs><title>itbc</title><g id="logotipo"><path class="cls-1" d="M36.17,50.67a3.65,3.65,0,0,0,0,5.17l2.57,2.57a3.63,3.63,0,0,0,5.17,0L69.57,32.76a3.66,3.66,0,0,0,0-5.18L67,25a3.67,3.67,0,0,0-5.18,0Z" transform="translate(-0.24 -0.75)"/><path class="cls-1" d="M82.27,41.75a3.64,3.64,0,0,0-1.07-2.59l-2.57-2.57a3.68,3.68,0,0,0-5.18,0L41.39,68.66l-9-9a3.68,3.68,0,0,0-5.18,0l-2.56,2.57a3.65,3.65,0,0,0,0,5.18l9,9h0l5.15,5.15a3.65,3.65,0,0,0,5.18,0L81.2,44.34a3.64,3.64,0,0,0,1.07-2.59" transform="translate(-0.24 -0.75)"/><path class="cls-1" d="M58,21.15A3.66,3.66,0,0,0,58,16L56.5,14.51h0L43.82,1.82a3.67,3.67,0,0,0-5.18,0L36.07,4.39a3.67,3.67,0,0,0,0,5.17l9,9L13,50.64a3.66,3.66,0,0,0,0,5.17l2.57,2.57a3.67,3.67,0,0,0,5.18,0Z" transform="translate(-0.24 -0.75)"/><path class="cls-1" d="M35.82,18.57A3.64,3.64,0,0,0,34.75,16l-2.57-2.57a3.67,3.67,0,0,0-5.18,0L1.31,39.11a3.65,3.65,0,0,0,0,5.17l2.57,2.57a3.63,3.63,0,0,0,5.17,0l25.7-25.69a3.65,3.65,0,0,0,1.07-2.59" transform="translate(-0.24 -0.75)"/><path class="cls-1" d="M115.63,28.61H125V59.33a2.86,2.86,0,0,0,2.85,2.85h6.73V28.61h12.18V24.07a2.86,2.86,0,0,0-2.85-2.85H112.79v4.54a2.85,2.85,0,0,0,2.84,2.85" transform="translate(-0.24 -0.75)"/><path class="cls-1" d="M179.56,41.23l-1.24-.35,1.19-.48A7.76,7.76,0,0,0,183,37.47a9.66,9.66,0,0,0,1.43-5.5c0-3.66-.92-6.66-2.54-8.25s-4.39-2.5-8-2.5H154a2.85,2.85,0,0,0-2.84,2.85V62.18h24.5c3.65,0,6.36-.87,8-2.59s2.54-4.46,2.54-8.18a13.8,13.8,0,0,0-.56-4.11,8.55,8.55,0,0,0-6.08-6.07m-18.88-12H171c2.56,0,3.92,1.37,3.92,4v1.19c0,2.59-1.36,4-3.92,4H160.68Zm15.95,21.65c0,2.59-1.36,4-3.92,4h-12V45.68h12c2.56,0,3.92,1.37,3.92,4Z" transform="translate(-0.24 -0.75)"/><path class="cls-1" d="M193.22,23.89c-1.75,1.77-2.63,4.69-2.63,8.68V51.42c0,3.72.86,6.47,2.54,8.18s4.07,2.47,7.39,2.57H222.2V57.64a2.84,2.84,0,0,0-2.84-2.84h-16a3.14,3.14,0,0,1-2.31-.92,3.39,3.39,0,0,1-.9-2.46V32.57c0-2.59,1.35-4,3.91-4h15.28a2.84,2.84,0,0,0,2.84-2.84V21.22H201.76c-3.92,0-6.8.9-8.54,2.67" transform="translate(-0.24 -0.75)"/><path class="cls-1" d="M101.52,62.18h6.73V24.07a2.85,2.85,0,0,0-2.85-2.85H98.68V59.33a2.85,2.85,0,0,0,2.84,2.85" transform="translate(-0.24 -0.75)"/></g></svg>