<svg id="Capa_1" data-name="Capa 1" xmlns="http://www.w3.org/2000/svg" viewBox="0 0 42 42"><defs><style>.cls-1{fill:#a6a8ab;}</style></defs><title>instagram</title><path class="cls-1" d="M39.41,12.5H20.59A11.6,11.6,0,0,0,9,24.09V42.91A11.6,11.6,0,0,0,20.59,54.5H39.41A11.6,11.6,0,0,0,51,42.91V24.09A11.6,11.6,0,0,0,39.41,12.5Zm7.86,30.41a7.86,7.86,0,0,1-7.86,7.86H20.59a7.86,7.86,0,0,1-7.86-7.86V24.09a7.86,7.86,0,0,1,7.86-7.86H39.41a7.86,7.86,0,0,1,7.86,7.86Zm0,0" transform="translate(-9 -12.5)"/><path class="cls-1" d="M30,22.68A10.82,10.82,0,1,0,40.82,33.5,10.83,10.83,0,0,0,30,22.68ZM30,40.6a7.1,7.1,0,1,1,7.1-7.1A7.11,7.11,0,0,1,30,40.6Zm0,0" transform="translate(-9 -12.5)"/><path class="cls-1" d="M41.28,19.52a2.73,2.73,0,1,0,1.93.8,2.72,2.72,0,0,0-1.93-.8Zm0,0" transform="translate(-9 -12.5)"/></svg>