<svg id="Capa_1" data-name="Capa 1" xmlns="http://www.w3.org/2000/svg" viewBox="0 0 45.95 38.83"><defs><style>.cls-1{fill:#a6a8ab;}</style></defs><title>Twitter</title><path class="cls-1" d="M50,19.43l1.53-4.38a.33.33,0,0,0-.43-.43c-1.51.55-5.15,1.86-6.25,2.15a11.06,11.06,0,0,0-13-1,9,9,0,0,0-4.37,9.08.17.17,0,0,1-.18.18,24.1,24.1,0,0,1-15.4-8.76l-.58-.7a.77.77,0,0,0-1.27.12l-.43.81a10.82,10.82,0,0,0-1.16,7.3,10.28,10.28,0,0,0,1,2.86l-.28-.11a.67.67,0,0,0-.91.58l-.07,1A10,10,0,0,0,9.86,34a11.12,11.12,0,0,0,1.32,1.63h0a.36.36,0,0,0-.39.47l.52,1.59a10.43,10.43,0,0,0,5.37,6.22c-2.5,1.07-4.53,1.74-7.85,2.84l-1.24.4a.83.83,0,0,0-.13,1.51l1.13.63a29.89,29.89,0,0,0,8.6,3.13c8.32,1.3,17.69.24,24-5.44,5.31-4.78,7.06-11.59,6.69-18.67a4.45,4.45,0,0,1,.83-2.88c1-1.28,3.38-4.59,4.23-5.75a.25.25,0,0,0-.21-.39C51.87,19.33,50.22,19.4,50,19.43Zm-3.49,4.34a7.17,7.17,0,0,0-1.38,4.69c.37,7.14-1.58,12.68-5.78,16.46-4.9,4.41-12.81,6.15-21.69,4.75a20.11,20.11,0,0,1-4-1.12.26.26,0,0,1,0-.49,74.46,74.46,0,0,0,7.75-3.23l2.39-1.13a.71.71,0,0,0-.26-1.34l-2.64-.17a7.63,7.63,0,0,1-5.52-2.75.47.47,0,0,1,.28-.76,10.42,10.42,0,0,0,1.26-.26l3.47-1a.44.44,0,0,0,0-.86l-3.49-.86a7.66,7.66,0,0,1-4.69-3.26,8.43,8.43,0,0,1-.85-1.7.32.32,0,0,1,.36-.42,15.33,15.33,0,0,0,1.56.21l3.46.34a.38.38,0,0,0,.27-.68l-2.73-2.14a8,8,0,0,1-3.17-7.69.38.38,0,0,1,.64-.2A27.13,27.13,0,0,0,30,28a.55.55,0,0,0,.57-.64c-.16-1-.44-2.71-.44-3,0-3.71,1.94-5.61,3.08-6.31a8.31,8.31,0,0,1,9.8.81,2.48,2.48,0,0,0,2.28.61c.54-.13,1-.27,1.45-.42a.22.22,0,0,1,.28.28L46.13,22a.28.28,0,0,0,.26.37h.89a.13.13,0,0,1,.1.2c-.26.35-.55.75-.9,1.21Zm0,0" transform="translate(-7.03 -14.08)"/></svg>