<svg id="Capa_1" data-name="Capa 1" xmlns="http://www.w3.org/2000/svg" viewBox="0 0 44.42 40.46"><title>chat</title><path d="M46.92,13.27H30.05a5.34,5.34,0,0,0-5.37,5.29V26H13.14a5.36,5.36,0,0,0-5.35,5.33V43.72A5.32,5.32,0,0,0,13.14,49H28.67l4.83,4.43a1.09,1.09,0,0,0,.74.3,1.08,1.08,0,0,0,1.08-1.09v-13a1.1,1.1,0,1,0-2.2,0V50.14l-3.29-3a1.08,1.08,0,0,0-.74-.31H13.14A3.12,3.12,0,0,1,10,43.72V31.33a3.16,3.16,0,0,1,3.15-3.13H24.68V39.87a1.13,1.13,0,0,0,1.88.82l4-3.69.28-.26c.22-.2.45-.41.54-.47a4.4,4.4,0,0,1,.52,0h15A5.29,5.29,0,0,0,52.21,31V18.56A5.27,5.27,0,0,0,46.92,13.27ZM50,31a3.09,3.09,0,0,1-3.09,3.11H32a2.77,2.77,0,0,0-2.58,1l-.31.26-2.21,2V18.56a3.14,3.14,0,0,1,3.17-3.09H46.92A3.07,3.07,0,0,1,50,18.56Z" transform="translate(-7.79 -13.27)"/></svg>