<svg id="Capa_1" data-name="Capa 1" xmlns="http://www.w3.org/2000/svg" viewBox="0 0 161.57 31.19"><defs><style>.cls-1{fill:gray;}</style></defs><title>logo</title><path class="cls-1" d="M61.57,39.16A48,48,0,0,0,47,23.75,44,44,0,0,0,59.3,8.07H49.14a36.85,36.85,0,0,1-31.55,17.3c-1,0-2-.05-3-.12V8.07H5.24V39.16h9.4V33.92c1,.06,2,.1,3,.1a47.08,47.08,0,0,0,21.12-5c4.71,2.33,8.34,5.43,12.61,10.09Z" transform="translate(-5.23 -7.98)"/><path class="cls-1" d="M124.71,39.16,111.4,15.77a15.1,15.1,0,0,0-13.12-7.7h0c-5.41,0-10.36,3.48-13.12,7.7l-5,8.77L71.85,39.16H82.21l6.1-10.65L92.62,21A6.5,6.5,0,0,1,104,21l10.4,18.17Z" transform="translate(-5.23 -7.98)"/><path class="cls-1" d="M104.17,39.12,90.87,15.73A15.11,15.11,0,0,0,77.75,8h0a15.14,15.14,0,0,0-13.13,7.71l-5,8.76L51.32,39.12H61.68l6.1-10.66,4.3-7.52a6.5,6.5,0,0,1,11.33,0L93.82,39.12Z" transform="translate(-5.23 -7.98)"/><path class="cls-1" d="M159.78,17.06a40.55,40.55,0,0,1,7,.61V8.47a50.66,50.66,0,0,0-7-.49c-21.11,0-39,13.06-45.39,31.18H166.8V25.23H156v4.91H130.41A39,39,0,0,1,159.78,17.06Z" transform="translate(-5.23 -7.98)"/></svg>