<svg id="Capa_1" data-name="Capa 1" xmlns="http://www.w3.org/2000/svg" viewBox="0 0 160.27 150.93"><defs><style>.cls-1{fill:#2aafcf;}</style></defs><title>1</title><path class="cls-1" d="M155,148.39a1,1,0,0,1,1-1h0a1,1,0,0,1,1,1h0a1,1,0,0,1-1,1h0A1,1,0,0,1,155,148.39Zm-4.15,0a1,1,0,0,1,1-1h0a1,1,0,0,1,1,1h0a1,1,0,0,1-1,1h0A1,1,0,0,1,150.87,148.39Zm-4.14,0a1,1,0,0,1,1-1h0a1,1,0,0,1,1,1h0a1,1,0,0,1-1,1h0A1,1,0,0,1,146.73,148.39Zm-4.15,0a1,1,0,0,1,1-1h0a1,1,0,0,1,1,1h0a1,1,0,0,1-1,1h0A1,1,0,0,1,142.58,148.39Zm-4.15,0a1,1,0,0,1,1-1h0a1,1,0,0,1,1.05,1h0a1,1,0,0,1-1.05,1h0A1,1,0,0,1,138.43,148.39Zm-4.15,0a1,1,0,0,1,1-1h0a1,1,0,0,1,1,1h0a1,1,0,0,1-1,1h0A1,1,0,0,1,134.28,148.39Zm-4.15,0a1,1,0,0,1,1-1h0a1,1,0,0,1,1,1h0a1,1,0,0,1-1,1h0A1,1,0,0,1,130.13,148.39Zm-4.15,0a1,1,0,0,1,1-1h0a1,1,0,0,1,1,1h0a1,1,0,0,1-1,1h0A1,1,0,0,1,126,148.39Zm-4.15,0a1,1,0,0,1,1-1h0a1,1,0,0,1,1,1h0a1,1,0,0,1-1,1h0A1,1,0,0,1,121.83,148.39Zm-4.14,0a1,1,0,0,1,1-1h0a1,1,0,0,1,1,1h0a1,1,0,0,1-1,1h0A1,1,0,0,1,117.69,148.39Zm-4.15,0a1,1,0,0,1,1-1h0a1,1,0,0,1,1,1h0a1,1,0,0,1-1,1h0A1,1,0,0,1,113.54,148.39Zm-50.19,0a1,1,0,0,1,1-1h0a1,1,0,0,1,1,1h0a1,1,0,0,1-1,1h0A1,1,0,0,1,63.35,148.39Zm-4.15,0a1,1,0,0,1,1-1h0a1,1,0,0,1,1,1h0a1,1,0,0,1-1,1h0A1,1,0,0,1,59.2,148.39Zm-4.15,0a1,1,0,0,1,1-1h0a1,1,0,0,1,1,1h0a1,1,0,0,1-1,1h0A1,1,0,0,1,55.05,148.39Zm-4.14,0a1,1,0,0,1,1-1h0a1,1,0,0,1,1,1h0a1,1,0,0,1-1,1h0A1,1,0,0,1,50.91,148.39Zm-4.16,0a1,1,0,0,1,1-1h0a1,1,0,0,1,1,1h0a1,1,0,0,1-1,1h0A1,1,0,0,1,46.75,148.39Zm-4.15,0a1,1,0,0,1,1-1h0a1,1,0,0,1,1,1h0a1,1,0,0,1-1,1h0A1,1,0,0,1,42.6,148.39Zm-4.15,0a1,1,0,0,1,1-1h0a1,1,0,0,1,1,1h0a1,1,0,0,1-1,1h0A1,1,0,0,1,38.45,148.39Zm-4.14,0a1,1,0,0,1,1-1h0a1,1,0,0,1,1,1h0a1,1,0,0,1-1,1h0A1,1,0,0,1,34.31,148.39Zm-4.15,0a1,1,0,0,1,1-1h0a1,1,0,0,1,1,1h0a1,1,0,0,1-1,1h0A1,1,0,0,1,30.16,148.39Zm-4.15,0a1,1,0,0,1,1-1h0a1,1,0,0,1,1,1h0a1,1,0,0,1-1,1h0A1,1,0,0,1,26,148.39Zm-4.15,0a1,1,0,0,1,1-1h0a1,1,0,0,1,1,1h0a1,1,0,0,1-1,1h0A1,1,0,0,1,21.86,148.39Zm-4.14,0a1,1,0,0,1,1-1h0a1,1,0,0,1,1,1h0a1,1,0,0,1-1,1h0A1,1,0,0,1,17.72,148.39Zm92.17.4a1,1,0,0,1-.19-1.44h0a1,1,0,0,1,1.45-.2h0a1,1,0,0,1,.18,1.46h0a1,1,0,0,1-.81.4h0A1,1,0,0,1,109.89,148.79Zm49.4-.68a1,1,0,0,1-.54-1.35h0a1,1,0,0,1,1.36-.55h0a1,1,0,0,1,.53,1.36h0a1,1,0,0,1-.95.62h0A1,1,0,0,1,159.29,148.11ZM16.14,146.75a1,1,0,0,1-.66-1.3h0a1,1,0,0,1,1.29-.66h0a1,1,0,0,1,.67,1.29h0a1,1,0,0,1-1,.72h0A1.25,1.25,0,0,1,16.14,146.75Zm50.38-.21a1,1,0,0,1-.71-1.27h0a1,1,0,0,1,1.27-.72h0a1,1,0,0,1,.71,1.27h0a1,1,0,0,1-1,.75h0Zm41.53-2.1a1,1,0,0,1,.73-1.27h0a1,1,0,0,1,1.26.72h0a1,1,0,0,1-.72,1.27h0a1.26,1.26,0,0,1-.28,0h0A1,1,0,0,1,108.05,144.44Zm49.59-.64a1,1,0,0,1,.45-1.39h0a1,1,0,0,1,1.4.45h0a1,1,0,0,1-.46,1.39h0a1.13,1.13,0,0,1-.47.12h0A1.07,1.07,0,0,1,157.64,143.8ZM17.84,143a1,1,0,0,1-.45-1.38h0a1,1,0,0,1,1.39-.45h0a1,1,0,0,1,.46,1.38h0a1.05,1.05,0,0,1-.93.57h0A.91.91,0,0,1,17.84,143Zm49.79-.43a1,1,0,0,1-.71-1.27h0a1,1,0,0,1,1.26-.72h0a1,1,0,0,1,.72,1.27h0a1,1,0,0,1-1,.76h0A1.26,1.26,0,0,1,67.63,142.54ZM107,140.45a1,1,0,0,1,.72-1.27h0a1,1,0,0,1,1.27.71h0a1,1,0,0,1-.72,1.27h0a.9.9,0,0,1-.28,0h0A1,1,0,0,1,107,140.45Zm48.81-.35a1,1,0,0,1,.46-1.39h0a1,1,0,0,1,1.39.46h0a1,1,0,0,1-.45,1.38h0a1.16,1.16,0,0,1-.48.11h0A1,1,0,0,1,155.76,140.1Zm-136-.82a1,1,0,0,1-.45-1.39h0a1,1,0,0,1,1.38-.46h0a1,1,0,0,1,.46,1.4h0a1,1,0,0,1-.92.56h0A1.12,1.12,0,0,1,19.72,139.28Zm49-.79a1,1,0,0,1-.21-1.45h0a1,1,0,0,1,1.45-.2h0a1,1,0,0,1,.2,1.44h0a1,1,0,0,1-.82.41h0A1,1,0,0,1,68.67,138.49Zm36.66-1h0a1,1,0,0,1-.27-1.44h0a1,1,0,0,1,1.44-.27h0a1,1,0,0,1,.26,1.44h0a1,1,0,0,1-.85.45h0A1.12,1.12,0,0,1,105.33,137.54Zm48.56-1.15a1,1,0,0,1,.45-1.38h0a1,1,0,0,1,1.39.45h0a1,1,0,0,1-.45,1.39h0a1,1,0,0,1-.47.11h0A1,1,0,0,1,153.89,136.39Zm-53-.47a1,1,0,0,1,1-1h0a1,1,0,0,1,1,1h0a1,1,0,0,1-1,1h0A1,1,0,0,1,100.88,135.92Zm-4.14,0a1,1,0,0,1,1-1h0a1,1,0,0,1,1,1h0a1,1,0,0,1-1,1h0A1,1,0,0,1,96.74,135.92Zm-4.15,0a1,1,0,0,1,1-1h0a1,1,0,0,1,1,1h0a1,1,0,0,1-1,1h0A1,1,0,0,1,92.59,135.92Zm-4.15,0a1,1,0,0,1,1-1h0a1,1,0,0,1,1,1h0a1,1,0,0,1-1,1h0A1,1,0,0,1,88.44,135.92Zm-4.14,0a1,1,0,0,1,1-1h0a1,1,0,0,1,1,1h0a1,1,0,0,1-1,1h0A1,1,0,0,1,84.3,135.92Zm-4.15,0a1,1,0,0,1,1-1h0a1,1,0,0,1,1,1h0a1,1,0,0,1-1,1h0A1,1,0,0,1,80.15,135.92Zm-4.16,0a1,1,0,0,1,1-1h0a1,1,0,0,1,1,1h0a1,1,0,0,1-1,1h0A1,1,0,0,1,76,135.92Zm-4.14,0a1,1,0,0,1,1-1h0a1,1,0,0,1,1,1h0a1,1,0,0,1-1,1h0A1,1,0,0,1,71.85,135.92Zm-50.25-.34a1,1,0,0,1-.45-1.39h0a1,1,0,0,1,1.38-.45h0a1,1,0,0,1,.45,1.38h0a1,1,0,0,1-.92.57h0A1.07,1.07,0,0,1,21.6,135.58ZM152,132.7a1,1,0,0,1,.45-1.39h0a1,1,0,0,1,1.38.45h0a1,1,0,0,1-.45,1.39h0a1.09,1.09,0,0,1-.46.12h0A1,1,0,0,1,152,132.7Zm-128.54-.83a1,1,0,0,1-.46-1.38h0a1,1,0,0,1,1.39-.45h0a1,1,0,0,1,.45,1.38h0a1,1,0,0,1-.92.57h0A.86.86,0,0,1,23.48,131.87Zm126.77-2.5a1,1,0,0,1-.07-1.46h0a1,1,0,0,1,1.46-.07h0a1,1,0,0,1,.07,1.45h0a1,1,0,0,1-.76.35h0A1,1,0,0,1,150.25,129.37Zm-124.7-1.25a1,1,0,0,1,1-1.06h.08a1,1,0,0,1,1,1h0a1,1,0,0,1-1,1h-.05A1,1,0,0,1,25.55,128.12Zm120.35,0a1,1,0,0,1,1-1h0a1,1,0,0,1,1,1h0a1,1,0,0,1-1,1h0A1,1,0,0,1,145.9,128.09Zm-4.15,0a1,1,0,0,1,1-1h0a1,1,0,0,1,1,1h0a1,1,0,0,1-1,1h0A1,1,0,0,1,141.75,128.09Zm-4.14,0a1,1,0,0,1,1-1h0a1,1,0,0,1,1,1h0a1,1,0,0,1-1,1h0A1,1,0,0,1,137.61,128.09Zm-4.16,0a1,1,0,0,1,1-1h0a1,1,0,0,1,1,1h0a1,1,0,0,1-1,1h0A1,1,0,0,1,133.45,128.09Zm-4.15,0a1,1,0,0,1,1-1h0a1,1,0,0,1,1,1h0a1,1,0,0,1-1,1h0A1,1,0,0,1,129.3,128.09Zm-4.14,0a1,1,0,0,1,1-1h0a1,1,0,0,1,1,1h0a1,1,0,0,1-1,1h0A1,1,0,0,1,125.16,128.09Zm-4.15,0a1,1,0,0,1,1-1h0a1,1,0,0,1,1,1h0a1,1,0,0,1-1,1h0A1,1,0,0,1,121,128.09Zm-4.15,0a1,1,0,0,1,1-1h0a1,1,0,0,1,1,1h0a1,1,0,0,1-1,1h0A1,1,0,0,1,116.86,128.09Zm-4.14,0a1,1,0,0,1,1-1h0a1,1,0,0,1,1,1h0a1,1,0,0,1-1,1h0A1,1,0,0,1,112.72,128.09Zm-4.15,0a1,1,0,0,1,1-1h0a1,1,0,0,1,1,1h0a1,1,0,0,1-1,1h0A1,1,0,0,1,108.57,128.09Zm-4.15,0a1,1,0,0,1,1-1h0a1,1,0,0,1,1,1h0a1,1,0,0,1-1,1h0A1,1,0,0,1,104.42,128.09Zm-4.15,0a1,1,0,0,1,1-1h0a1,1,0,0,1,1,1h0a1,1,0,0,1-1,1h0A1,1,0,0,1,100.27,128.09Zm-4.15,0a1,1,0,0,1,1-1h0a1,1,0,0,1,1,1h0a1,1,0,0,1-1,1h0A1,1,0,0,1,96.12,128.09Zm-4.15,0a1,1,0,0,1,1-1h0a1,1,0,0,1,1,1h0a1,1,0,0,1-1,1h0A1,1,0,0,1,92,128.09Zm-4.15,0a1,1,0,0,1,1-1h0a1,1,0,0,1,1,1h0a1,1,0,0,1-1,1h0A1,1,0,0,1,87.82,128.09Zm-4.14,0a1,1,0,0,1,1-1h0a1,1,0,0,1,1,1h0a1,1,0,0,1-1,1h0A1,1,0,0,1,83.68,128.09Zm-4.15,0a1,1,0,0,1,1-1h0a1,1,0,0,1,1,1h0a1,1,0,0,1-1,1h0A1,1,0,0,1,79.53,128.09Zm-4.15,0a1,1,0,0,1,1-1h0a1,1,0,0,1,1,1h0a1,1,0,0,1-1,1h0A1,1,0,0,1,75.38,128.09Zm-4.14,0a1,1,0,0,1,1-1h0a1,1,0,0,1,1,1h0a1,1,0,0,1-1,1h0A1,1,0,0,1,71.24,128.09Zm-4.15,0a1,1,0,0,1,1-1h0a1,1,0,0,1,1,1h0a1,1,0,0,1-1,1h0A1,1,0,0,1,67.09,128.09Zm-4.15,0a1,1,0,0,1,1-1h0a1,1,0,0,1,1.05,1h0a1,1,0,0,1-1.05,1h0A1,1,0,0,1,62.94,128.09Zm-4.15,0a1,1,0,0,1,1-1h0a1,1,0,0,1,1,1h0a1,1,0,0,1-1,1h0A1,1,0,0,1,58.79,128.09Zm-4.15,0a1,1,0,0,1,1-1h0a1,1,0,0,1,1,1h0a1,1,0,0,1-1,1h0A1,1,0,0,1,54.64,128.09Zm-4.15,0a1,1,0,0,1,1-1h0a1,1,0,0,1,1,1h0a1,1,0,0,1-1,1h0A1,1,0,0,1,50.49,128.09Zm-4.14,0a1,1,0,0,1,1-1h0a1,1,0,0,1,1,1h0a1,1,0,0,1-1,1h0A1,1,0,0,1,46.35,128.09Zm-4.15,0a1,1,0,0,1,1-1h0a1,1,0,0,1,1,1h0a1,1,0,0,1-1,1h0A1,1,0,0,1,42.2,128.09Zm-4.15,0a1,1,0,0,1,1-1h0a1,1,0,0,1,1,1h0a1,1,0,0,1-1,1h0A1,1,0,0,1,38.05,128.09Zm-4.14,0a1,1,0,0,1,1-1h0a1,1,0,0,1,1,1h0a1,1,0,0,1-1,1h0A1,1,0,0,1,33.91,128.09Zm-4.15,0a1,1,0,0,1,1-1h0a1,1,0,0,1,1,1h0a1,1,0,0,1-1,1h0A1,1,0,0,1,29.76,128.09Z" transform="translate(-7.98 -9.12)"/><path class="cls-1" d="M105.61,149.42h-35a.87.87,0,0,1-.84-1.1L72,140.16a.87.87,0,0,1,.84-.64h30.49a.88.88,0,0,1,.85.64l2.24,8.16A.87.87,0,0,1,105.61,149.42Zm-32.75-2.06h30.51a.52.52,0,0,0,.5-.65L102.56,142a.5.5,0,0,0-.49-.37H74.17a.51.51,0,0,0-.5.37l-1.31,4.75A.52.52,0,0,0,72.86,147.36Z" transform="translate(-7.98 -9.12)"/><rect class="cls-1" x="50.83" y="95.27" width="76.18" height="2.06" rx="1.03"/><rect class="cls-1" x="72.19" y="85.57" width="54.82" height="2.06" rx="1.03"/><rect class="cls-1" x="38.92" y="90.42" width="88.08" height="2.06" rx="1.03"/><circle class="cls-1" cx="48.78" cy="96.3" r="1.03"/><circle class="cls-1" cx="70.22" cy="86.6" r="1.03"/><circle class="cls-1" cx="36.74" cy="91.45" r="1.03"/><circle class="cls-1" cx="33.67" cy="91.45" r="1.03"/><circle class="cls-1" cx="45.9" cy="96.3" r="1.03"/><path class="cls-1" d="M167.89,146.34l-11.81-22.5a4.2,4.2,0,0,1-.47-1.93V44.67a5.48,5.48,0,0,0-5.52-5.41H127.52a1,1,0,0,0-1,1h0a1,1,0,0,0,1,1h22.57a3.4,3.4,0,0,1,3.45,3.34v77.75a4.14,4.14,0,0,0,.48,1.92l12,23a1,1,0,0,1,.13.5v6a4.24,4.24,0,0,1-4.3,4.17H14.34a4.24,4.24,0,0,1-4.3-4.17v-5.74a1.17,1.17,0,0,1,.12-.48l12.15-23.43a3.31,3.31,0,0,0,.38-1.54V44.67a3.4,3.4,0,0,1,3.45-3.34H46.82a1,1,0,0,0,1-1h0a1,1,0,0,0-1-1H26.14a5.47,5.47,0,0,0-5.51,5.41v77.45a3.34,3.34,0,0,1-.38,1.54l-11.92,23A3.11,3.11,0,0,0,8,148.07v5.74A6.3,6.3,0,0,0,14.34,160H161.89a6.3,6.3,0,0,0,6.36-6.23v-6A3.12,3.12,0,0,0,167.89,146.34Z" transform="translate(-7.98 -9.12)"/><path class="cls-1" d="M141.26,48.84H127.5a1,1,0,0,0-1,1h0a1,1,0,0,0,1,1h13.76a2.7,2.7,0,0,1,2.7,2.7v61.17a2.7,2.7,0,0,1-2.7,2.7H35a2.7,2.7,0,0,1-2.7-2.7V53.6A2.7,2.7,0,0,1,35,50.9H46.8a1,1,0,0,0,1-1h0a1,1,0,0,0-1-1H35A4.77,4.77,0,0,0,30.2,53.6v61.17A4.78,4.78,0,0,0,35,119.54H141.26a4.78,4.78,0,0,0,4.77-4.77V53.6A4.77,4.77,0,0,0,141.26,48.84Z" transform="translate(-7.98 -9.12)"/><path class="cls-1" d="M87.23,68.44" transform="translate(-7.98 -9.12)"/><path class="cls-1" d="M87.15,62.45" transform="translate(-7.98 -9.12)"/><path class="cls-1" d="M79.78,74.57a1,1,0,0,1-.73-.3,1,1,0,0,1-.3-.73,1.5,1.5,0,0,1,0-.2,1.27,1.27,0,0,1,.15-.37c0-.06.09-.11.13-.16a1.05,1.05,0,0,1,1.12-.22.86.86,0,0,1,.46.38.46.46,0,0,1,.1.18.6.6,0,0,1,.06.19,1.5,1.5,0,0,1,0,.2,1,1,0,0,1-.3.73,1.36,1.36,0,0,1-.34.23A1,1,0,0,1,79.78,74.57Z" transform="translate(-7.98 -9.12)"/><path class="cls-1" d="M75.73,73.26h0a1,1,0,0,1-.57-1.35h0a1,1,0,0,1,1.35-.56h0a1.05,1.05,0,0,1,.56,1.35h0a1,1,0,0,1-1,.64h0A1.09,1.09,0,0,1,75.73,73.26Z" transform="translate(-7.98 -9.12)"/><path class="cls-1" d="M72.66,71.63a1,1,0,0,1-.39-.08,1.14,1.14,0,0,1-.56-.56,1,1,0,0,1-.08-.39,1.65,1.65,0,0,1,0-.21.7.7,0,0,1,.06-.19A.51.51,0,0,1,71.8,70s.09-.11.14-.15a.86.86,0,0,1,.33-.23,1,1,0,0,1,.6,0l.18,0,.19.09.15.14a1,1,0,0,1,.3.73,1,1,0,0,1-.08.39.83.83,0,0,1-.22.33l-.15.14-.19.09-.18.06Z" transform="translate(-7.98 -9.12)"/><path class="cls-1" d="M65.8,75.49a1.05,1.05,0,0,1,0-1.47h0a1.05,1.05,0,0,1,1.47,0h0a1.05,1.05,0,0,1,0,1.47h0a1.06,1.06,0,0,1-.74.3h0A1.06,1.06,0,0,1,65.8,75.49Zm3.28-1.31a1,1,0,0,1,0-1.46h0a1,1,0,0,1,1.46,0h0a1,1,0,0,1,0,1.46h0a1,1,0,0,1-.74.3h0A1,1,0,0,1,69.08,74.18Zm-6.14-1.55a1,1,0,0,1,0-1.45h0a1,1,0,0,1,1.47,0h0a1,1,0,0,1,0,1.45h0a1.06,1.06,0,0,1-.73.3h0A1.08,1.08,0,0,1,62.94,72.63ZM60.1,69.77a1,1,0,0,1,0-1.45h0a1,1,0,0,1,1.45,0h0a1,1,0,0,1,0,1.45h0a1,1,0,0,1-.73.3h0A1,1,0,0,1,60.1,69.77Zm-2.86-2.85a1,1,0,0,1,0-1.46h0a1,1,0,0,1,1.45,0h0a1,1,0,0,1,0,1.46h0a1,1,0,0,1-.73.3h0A1,1,0,0,1,57.24,66.92Zm1.29-3.27a1.07,1.07,0,0,1,0-1.47h0a1,1,0,0,1,1.46,0h0a1,1,0,0,1,0,1.47h0a1.06,1.06,0,0,1-.73.3h0A1.06,1.06,0,0,1,58.53,63.65Z" transform="translate(-7.98 -9.12)"/><path class="cls-1" d="M62.12,61.09a1,1,0,0,1-.72-.3,1,1,0,0,1-.31-.73,1,1,0,0,1,.31-.74,1.06,1.06,0,0,1,1.45,0,1,1,0,0,1,0,1.47A1.07,1.07,0,0,1,62.12,61.09Z" transform="translate(-7.98 -9.12)"/><path class="cls-1" d="M59.46,57h0A1,1,0,0,1,60,55.64h0a1,1,0,0,1,1.36.56h0a1.05,1.05,0,0,1-.56,1.35h0a1.16,1.16,0,0,1-.4.07h0A1,1,0,0,1,59.46,57Z" transform="translate(-7.98 -9.12)"/><path class="cls-1" d="M59.18,54a1,1,0,0,1-.73-.3,1.08,1.08,0,0,1-.23-.34,1,1,0,0,1-.07-.39,1,1,0,0,1,.3-.73,1,1,0,0,1,1.45,0,1,1,0,0,1,.31.73,1,1,0,0,1-.08.39.89.89,0,0,1-.23.34A1,1,0,0,1,59.18,54Z" transform="translate(-7.98 -9.12)"/><path class="cls-1" d="M54.1,52.94a1,1,0,0,1,1-1h0a1,1,0,0,1,1,1h0a1,1,0,0,1-1,1h0A1,1,0,0,1,54.1,52.94Zm-3.24-1.39a1,1,0,0,1,1-1h0a1,1,0,0,1,1,1h0a1,1,0,0,1-1,1h0A1,1,0,0,1,50.86,51.55Zm0-4a1,1,0,0,1,1-1h0a1,1,0,0,1,1,1h0a1,1,0,0,1-1,1h0A1,1,0,0,1,50.86,47.5Zm0-4a1,1,0,0,1,1-1h0a1,1,0,0,1,1,1h0a1,1,0,0,1-1,1h0A1,1,0,0,1,50.86,43.47Zm0-4a1,1,0,0,1,1-1h0a1,1,0,0,1,1,1h0a1,1,0,0,1-1,1h0A1,1,0,0,1,50.86,39.43ZM54.1,38a1,1,0,0,1,1-1h0a1,1,0,0,1,1,1h0a1,1,0,0,1-1,1h0A1,1,0,0,1,54.1,38Z" transform="translate(-7.98 -9.12)"/><path class="cls-1" d="M59.19,39.06,59,39,58.79,39a.61.61,0,0,1-.18-.09l-.15-.12a1.08,1.08,0,0,1-.23-1.13,1.08,1.08,0,0,1,.23-.34l.15-.12a.64.64,0,0,1,.18-.1L59,37a1.05,1.05,0,0,1,.93.28,1.08,1.08,0,0,1,.23.34,1,1,0,0,1-.23,1.13A1.06,1.06,0,0,1,59.19,39.06Z" transform="translate(-7.98 -9.12)"/><path class="cls-1" d="M60,35.34A1,1,0,0,1,59.47,34h0a1,1,0,0,1,1.35-.56h0a1.05,1.05,0,0,1,.56,1.35h0a1,1,0,0,1-1,.63h0A1.16,1.16,0,0,1,60,35.34Z" transform="translate(-7.98 -9.12)"/><path class="cls-1" d="M62.14,32a1,1,0,0,1-.73-.31.94.94,0,0,1-.23-.33,1.12,1.12,0,0,1-.07-.4,1.09,1.09,0,0,1,.07-.4,1,1,0,0,1,.23-.33,1.08,1.08,0,0,1,.93-.29l.19.07.18.09a.64.64,0,0,1,.15.13,1,1,0,0,1,.23.33,1,1,0,0,1,0,.8.94.94,0,0,1-.23.33.64.64,0,0,1-.15.13l-.18.1-.19.06Z" transform="translate(-7.98 -9.12)"/><path class="cls-1" d="M58.55,28.8a1,1,0,0,1,0-1.45h0a1,1,0,0,1,1.45,0h0a1,1,0,0,1,0,1.46h0a1,1,0,0,1-.72.3h0A1,1,0,0,1,58.55,28.8Zm-1.32-3.28a1,1,0,0,1,0-1.45h0a1,1,0,0,1,1.45,0h0a1,1,0,0,1,0,1.45h0a1,1,0,0,1-.72.3h0A1,1,0,0,1,57.23,25.52Zm2.86-2.86a1,1,0,0,1,0-1.46h0a1,1,0,0,1,1.46,0h0a1,1,0,0,1,0,1.46h0a1,1,0,0,1-.73.3h0A1,1,0,0,1,60.09,22.66Zm2.85-2.86a1,1,0,0,1,0-1.46h0a1.05,1.05,0,0,1,1.47,0h0a1,1,0,0,1,0,1.46h0a1,1,0,0,1-.73.3h0A1.08,1.08,0,0,1,62.94,19.8Zm6.15-1.54a1,1,0,0,1,0-1.46h0a1,1,0,0,1,1.46,0h0a1,1,0,0,1,0,1.46h0a1,1,0,0,1-.73.31h0A1,1,0,0,1,69.09,18.26Zm-3.28-1.32a1,1,0,0,1,0-1.46h0a1,1,0,0,1,1.46,0h0a1,1,0,0,1,0,1.46h0a1,1,0,0,1-.73.3h0A1,1,0,0,1,65.81,16.94Z" transform="translate(-7.98 -9.12)"/><path class="cls-1" d="M72.69,21.44a.64.64,0,0,1-.2,0,.66.66,0,0,1-.2-.06l-.18-.09a.93.93,0,0,1-.15-.13,1,1,0,0,1-.31-.73,1.14,1.14,0,0,1,.08-.4,1.22,1.22,0,0,1,.38-.46l.18-.1.2-.06a1.34,1.34,0,0,1,.4,0l.19.06.18.1.15.13a.94.94,0,0,1,.23.33,1.12,1.12,0,0,1,.07.4,1,1,0,0,1-.3.73l-.15.13a1,1,0,0,1-.18.09,1.28,1.28,0,0,1-.39.09Z" transform="translate(-7.98 -9.12)"/><path class="cls-1" d="M75.18,19.09a1,1,0,0,1,.57-1.35h0a1,1,0,0,1,1.34.56h0a1,1,0,0,1-.56,1.35h0a1,1,0,0,1-.39.07h0A1,1,0,0,1,75.18,19.09Z" transform="translate(-7.98 -9.12)"/><path class="cls-1" d="M79.78,18.5a1,1,0,0,1-.73-.3,1.09,1.09,0,0,1-.3-.74,1,1,0,0,1,.3-.72,1.05,1.05,0,0,1,1.12-.23,1.13,1.13,0,0,1,.34.23,1,1,0,0,1,.3.72,1,1,0,0,1-.64.95A.77.77,0,0,1,79.78,18.5Z" transform="translate(-7.98 -9.12)"/><path class="cls-1" d="M93.65,13.42a1,1,0,0,1,1-1h0a1,1,0,0,1,1,1h0a1,1,0,0,1-1,1h0A1,1,0,0,1,93.65,13.42Zm-14.9,0a1,1,0,0,1,1-1h0a1,1,0,0,1,1,1h0a1,1,0,0,1-1,1h0A1,1,0,0,1,78.75,13.42ZM93.3,11.18a1,1,0,0,1-1-1h0a1,1,0,0,1,1-1h0a1,1,0,0,1,1,1h0a1,1,0,0,1-1,1h0Zm-5.07-1a1,1,0,0,1,1-1h0a1,1,0,0,1,1,1h0a1,1,0,0,1-1,1h0A1,1,0,0,1,88.23,10.15Zm-4.06,0a1,1,0,0,1,1-1h0a1,1,0,0,1,1,1h0a1,1,0,0,1-1,1h0A1,1,0,0,1,84.17,10.15Zm-4,0a1,1,0,0,1,1-1h0a1,1,0,0,1,1,1h0a1,1,0,0,1-1,1h0A1,1,0,0,1,80.13,10.15Z" transform="translate(-7.98 -9.12)"/><path class="cls-1" d="M94.68,18.51A1,1,0,0,1,94,16.74a1.07,1.07,0,0,1,.94-.28.56.56,0,0,1,.19.07.76.76,0,0,1,.18.09l.16.12a1.36,1.36,0,0,1,.21.34.92.92,0,0,1,.09.39.93.93,0,0,1-.09.4,1.08,1.08,0,0,1-.21.34l-.16.12a.76.76,0,0,1-.18.09.89.89,0,0,1-.19.07Z" transform="translate(-7.98 -9.12)"/><path class="cls-1" d="M97.92,19.66h0a1,1,0,0,1-.55-1.35h0a1,1,0,0,1,1.35-.56h0a1.05,1.05,0,0,1,.56,1.35h0a1,1,0,0,1-1,.63h0A1.18,1.18,0,0,1,97.92,19.66Z" transform="translate(-7.98 -9.12)"/><path class="cls-1" d="M101.76,21.45a1,1,0,0,1-.72-1.77,1.06,1.06,0,0,1,1.45,0,1.05,1.05,0,0,1,0,1.47A1.05,1.05,0,0,1,101.76,21.45Z" transform="translate(-7.98 -9.12)"/><path class="cls-1" d="M114.45,28.81a1,1,0,0,1,0-1.46h0a1,1,0,0,1,1.45,0h0a1,1,0,0,1,0,1.46h0a1,1,0,0,1-.73.3h0A1,1,0,0,1,114.45,28.81Zm1.33-3.29a1,1,0,0,1,0-1.45h0a1,1,0,0,1,1.47,0h0a1,1,0,0,1,0,1.46h0a1,1,0,0,1-.72.3h0A1,1,0,0,1,115.78,25.52Zm-2.87-2.86a1,1,0,0,1,0-1.46h0a1.05,1.05,0,0,1,1.47,0h0a1,1,0,0,1,0,1.46h0a1.06,1.06,0,0,1-.74.3h0A1.06,1.06,0,0,1,112.91,22.66ZM110,19.8a1,1,0,0,1,0-1.46h0a1.05,1.05,0,0,1,1.47,0h0a1,1,0,0,1,0,1.46h0a1,1,0,0,1-.73.29h0A1.07,1.07,0,0,1,110,19.8Zm-6.14-1.52a1,1,0,0,1,0-1.47h0a1,1,0,0,1,1.46,0h0a1.05,1.05,0,0,1,0,1.47h0a1,1,0,0,1-.73.3h0A1,1,0,0,1,103.9,18.28Zm3.29-1.34a1,1,0,0,1,0-1.47h0a1,1,0,0,1,1.46,0h0a1,1,0,0,1,0,1.46h0a1,1,0,0,1-.73.31h0A1.06,1.06,0,0,1,107.19,16.94Z" transform="translate(-7.98 -9.12)"/><path class="cls-1" d="M112.3,32l-.19,0-.2-.06-.18-.1-.16-.13a1.09,1.09,0,0,1-.3-.72,1.15,1.15,0,0,1,.08-.41,1.46,1.46,0,0,1,.22-.33l.16-.13.18-.09.2-.05a1,1,0,0,1,.93.27,1.12,1.12,0,0,1,.3.74,1.09,1.09,0,0,1-.3.72A1.1,1.1,0,0,1,112.3,32Z" transform="translate(-7.98 -9.12)"/><path class="cls-1" d="M113.06,34.79a1,1,0,0,1,.55-1.35h0A1,1,0,0,1,115,34h0a1,1,0,0,1-.56,1.35h0a1.15,1.15,0,0,1-.39.07h0A1,1,0,0,1,113.06,34.79Z" transform="translate(-7.98 -9.12)"/><path class="cls-1" d="M115.24,39.06l-.2,0a.7.7,0,0,1-.19-.06l-.18-.09a1,1,0,0,1-.16-.12l-.12-.16a.81.81,0,0,1-.1-.18.82.82,0,0,1-.06-.19,1.36,1.36,0,0,1,0-.21,1,1,0,0,1,.08-.39,1.33,1.33,0,0,1,.22-.34l.16-.12a.81.81,0,0,1,.18-.1A.7.7,0,0,1,115,37a1,1,0,0,1,.94.28,1.08,1.08,0,0,1,.21.34,1,1,0,0,1,.08.39,1.36,1.36,0,0,1,0,.21.82.82,0,0,1-.06.19.76.76,0,0,1-.09.18l-.12.16A1.13,1.13,0,0,1,115.24,39.06Z" transform="translate(-7.98 -9.12)"/><path class="cls-1" d="M118.28,52.94a1,1,0,0,1,1-1h0a1,1,0,0,1,1,1h0a1,1,0,0,1-1,1h0A1,1,0,0,1,118.28,52.94Zm3.26-1.38a1,1,0,0,1,1-1h0a1,1,0,0,1,1,1h0a1,1,0,0,1-1,1h0A1,1,0,0,1,121.54,51.56Zm0-4.06a1,1,0,0,1,1-1h0a1,1,0,0,1,1,1h0a1,1,0,0,1-1,1h0A1,1,0,0,1,121.54,47.5Zm0-4a1,1,0,0,1,1-1h0a1,1,0,0,1,1,1h0a1,1,0,0,1-1,1h0A1,1,0,0,1,121.54,43.45Zm0-4v0a1,1,0,0,1,1-1h0a1,1,0,0,1,1,1h0a1,1,0,0,1-1,1h0A1,1,0,0,1,121.54,39.42ZM118.27,38a1,1,0,0,1,1-1h0a1,1,0,0,1,1,1h0a1,1,0,0,1-1,1h0A1,1,0,0,1,118.27,38Z" transform="translate(-7.98 -9.12)"/><path class="cls-1" d="M115.25,54l-.2,0a.7.7,0,0,1-.19-.06.76.76,0,0,1-.18-.09l-.16-.13a1.17,1.17,0,0,1-.22-.34.88.88,0,0,1-.08-.39.75.75,0,0,1,0-.21.64.64,0,0,1,.06-.18,1.33,1.33,0,0,1,.22-.34l.16-.13a.76.76,0,0,1,.18-.09.7.7,0,0,1,.19-.06,1.05,1.05,0,0,1,.94.28,1.09,1.09,0,0,1,.3.73,1.06,1.06,0,0,1-.09.39,1,1,0,0,1-.21.34A1.09,1.09,0,0,1,115.25,54Z" transform="translate(-7.98 -9.12)"/><path class="cls-1" d="M113.62,57.54a1,1,0,0,1-.55-1.35h0a1,1,0,0,1,1.35-.56h0A1,1,0,0,1,115,57h0a1,1,0,0,1-1,.63h0A1.18,1.18,0,0,1,113.62,57.54Z" transform="translate(-7.98 -9.12)"/><path class="cls-1" d="M112.31,61.07l-.19,0-.2-.06-.17-.1a.53.53,0,0,1-.16-.13,1.05,1.05,0,0,1-.31-.72,1.1,1.1,0,0,1,.31-.74.4.4,0,0,1,.16-.12,1,1,0,0,1,.17-.1l.2,0a1,1,0,0,1,.93.27,1,1,0,0,1-.74,1.77Z" transform="translate(-7.98 -9.12)"/><path class="cls-1" d="M107.2,75.48a1,1,0,0,1,0-1.46h0a1,1,0,0,1,1.46,0h0a1,1,0,0,1,0,1.46h0a1,1,0,0,1-.73.31h0A1,1,0,0,1,107.2,75.48Zm-3.27-1.3a1,1,0,0,1,0-1.47h0a1,1,0,0,1,1.45,0h0a1.05,1.05,0,0,1,0,1.47h0a1,1,0,0,1-.73.3h0A1,1,0,0,1,103.93,74.18Zm6.14-1.56a1,1,0,0,1,0-1.45h0a1,1,0,0,1,1.45,0h0a1,1,0,0,1,0,1.45h0a1,1,0,0,1-.73.3h0A1,1,0,0,1,110.07,72.62Zm2.85-2.86a1,1,0,0,1,0-1.46h0a1,1,0,0,1,1.46,0h0a1,1,0,0,1,0,1.46h0a1,1,0,0,1-.73.3h0A1.06,1.06,0,0,1,112.92,69.76Zm2.87-2.85a1,1,0,0,1,0-1.47h0a1.05,1.05,0,0,1,1.47,0h0a1,1,0,0,1,0,1.46h0a1.05,1.05,0,0,1-.74.31h0A1,1,0,0,1,115.79,66.91Zm-1.34-3.28a1.05,1.05,0,0,1,0-1.47h0a1,1,0,0,1,1.45,0h0a1,1,0,0,1,0,1.47h0a1,1,0,0,1-.72.29h0A1.05,1.05,0,0,1,114.45,63.63Z" transform="translate(-7.98 -9.12)"/><path class="cls-1" d="M101.79,71.61a1,1,0,0,1-.73-.3.94.94,0,0,1-.3-.73,1,1,0,0,1,.07-.39,1,1,0,0,1,.23-.33,1,1,0,0,1,.93-.29.7.7,0,0,1,.19.06.76.76,0,0,1,.18.09.5.5,0,0,1,.15.14,1,1,0,0,1,.31.72,1,1,0,0,1-.31.73.44.44,0,0,1-.15.12.54.54,0,0,1-.18.11l-.19,0A.68.68,0,0,1,101.79,71.61Z" transform="translate(-7.98 -9.12)"/><path class="cls-1" d="M97.38,72.69a1,1,0,0,1,.55-1.35h0a1,1,0,0,1,1.36.56h0a1,1,0,0,1-.56,1.35h0a1.09,1.09,0,0,1-.39.08h0A1,1,0,0,1,97.38,72.69Z" transform="translate(-7.98 -9.12)"/><path class="cls-1" d="M94.68,74.56a1,1,0,0,1-.73-.3,1.07,1.07,0,0,1-.3-.73,1,1,0,0,1,.3-.72,1.07,1.07,0,0,1,1.47,0,.93.93,0,0,1,.21.33.86.86,0,0,1,.09.39,1,1,0,0,1-.09.4.93.93,0,0,1-.21.33.83.83,0,0,1-.16.12.87.87,0,0,1-.18.11l-.19.05A.71.71,0,0,1,94.68,74.56Z" transform="translate(-7.98 -9.12)"/><path class="cls-1" d="M92.27,80.82a1,1,0,0,1,1-1h0a1,1,0,0,1,1,1h0a1,1,0,0,1-1,1h0A1,1,0,0,1,92.27,80.82Zm-4,0a1,1,0,0,1,1-1h0a1,1,0,0,1,1,1h0a1,1,0,0,1-1,1h0A1,1,0,0,1,88.23,80.82Zm-4,0a1,1,0,0,1,1-1h0a1,1,0,0,1,1,1h0a1,1,0,0,1-1,1h0A1,1,0,0,1,84.19,80.82Zm-4,0a1,1,0,0,1,1-1h0a1,1,0,0,1,1,1h0a1,1,0,0,1-1,1h0A1,1,0,0,1,80.15,80.82Zm-1.4-3.23a1,1,0,0,1,1-1h0a1,1,0,0,1,1,1h0a1,1,0,0,1-1,1h0A1,1,0,0,1,78.75,77.59Zm14.9,0a1,1,0,0,1,1-1h0a1,1,0,0,1,1,1h0a1,1,0,0,1-1,1h0A1,1,0,0,1,93.65,77.57Z" transform="translate(-7.98 -9.12)"/><path class="cls-1" d="M87.2,54.3a1,1,0,0,1,.89-1.14h0a1,1,0,0,1,1.15.89h0a1,1,0,0,1-.9,1.15h-.12A1,1,0,0,1,87.2,54.3Zm-3.5.34a1,1,0,0,1-.6-1.33h0a1,1,0,0,1,1.32-.6h0A1,1,0,0,1,85,54h0a1,1,0,0,1-1,.67h0A.89.89,0,0,1,83.7,54.64Zm7.58-1.37a1,1,0,0,1,.27-1.43h0A1,1,0,0,1,93,52.1h0a1,1,0,0,1-.26,1.44h0a1.07,1.07,0,0,1-.58.18h0A1,1,0,0,1,91.28,53.27ZM79.84,52a1,1,0,0,1,.08-1.45h0a1,1,0,0,1,1.47.08h0a1,1,0,0,1-.1,1.45h0a1,1,0,0,1-.68.26h0A1,1,0,0,1,79.84,52Zm14.59-1.53A1,1,0,0,1,94,49.07h0a1,1,0,0,1,1.4-.43h0A1,1,0,0,1,95.82,50h0a1.06,1.06,0,0,1-.92.56h0A.93.93,0,0,1,94.43,50.46ZM77.65,47.85a1.06,1.06,0,0,1,.76-1.26h0a1,1,0,0,1,1.24.77h0a1,1,0,0,1-.75,1.25h0a1,1,0,0,1-.25,0h0A1.05,1.05,0,0,1,77.65,47.85Zm17.23-2.37h0v0h0a1,1,0,0,1,1-1h0a1,1,0,0,1,1,1h0v0h0v0h0a1,1,0,0,1-1,1h0A1,1,0,0,1,94.88,45.48ZM78.41,44.42a1,1,0,0,1-.77-1.25h0a1,1,0,0,1,1.25-.75h0a1,1,0,0,1,.75,1.23h0a1,1,0,0,1-1,.8h0A1,1,0,0,1,78.41,44.42ZM94,41.86a1,1,0,0,1,.44-1.39h0a1,1,0,0,1,1.39.42h0a1,1,0,0,1-.43,1.39h0a1,1,0,0,1-.49.13h0A1,1,0,0,1,94,41.86ZM79.9,40.48A1,1,0,0,1,79.81,39h0a1,1,0,0,1,1.45-.09h0a1,1,0,0,1,.1,1.46h0a1.09,1.09,0,0,1-.78.35h0A1.05,1.05,0,0,1,79.9,40.48Zm11.61-1.37h0a1,1,0,0,1-.27-1.44h0a1,1,0,0,1,1.43-.27h0a1,1,0,0,1,.27,1.44h0a1,1,0,0,1-.85.45h0A1,1,0,0,1,91.51,39.11Zm-8.45-1.43a1,1,0,0,1,.59-1.34h0a1,1,0,0,1,1.33.6h0a1,1,0,0,1-.59,1.33h0a1,1,0,0,1-.37.07h0A1,1,0,0,1,83.06,37.68Zm5,.14a1,1,0,0,1-.91-1.15h0a1,1,0,0,1,1.15-.91h0a1,1,0,0,1,.91,1.15h0a1,1,0,0,1-1,.92h-.13Z" transform="translate(-7.98 -9.12)"/><path class="cls-1" d="M86.13,61a1,1,0,0,1,1-1h0a1,1,0,0,1,1,1h0a1,1,0,0,1-1,1h0A1,1,0,0,1,86.13,61Zm-3.25.47h0a1,1,0,0,1-.73-1.26h0a1,1,0,0,1,1.27-.73h0a1,1,0,0,1,.73,1.26h0a1,1,0,0,1-1,.76h0Zm7.31-.74a1,1,0,0,1,.73-1.26h0a1,1,0,0,1,1.26.73h0a1,1,0,0,1-.72,1.26h0a1.47,1.47,0,0,1-.27,0h0A1,1,0,0,1,90.19,60.75Zm-11.3-.91a1,1,0,0,1-.38-1.41h0a1,1,0,0,1,1.41-.37h0a1,1,0,0,1,.37,1.4h0a1,1,0,0,1-.88.51h0A1.08,1.08,0,0,1,78.89,59.84ZM94,59.45A1,1,0,0,1,94.41,58h0a1,1,0,0,1,1.41.39h0a1,1,0,0,1-.37,1.4h0a1.07,1.07,0,0,1-.52.14h0A1,1,0,0,1,94,59.45ZM75.46,57.21a1,1,0,0,1,0-1.45h0a1,1,0,0,1,1.46,0h0a1,1,0,0,1,0,1.45h0a1,1,0,0,1-.73.3h0A1,1,0,0,1,75.46,57.21Zm22,0a1,1,0,0,1,0-1.46h0a1,1,0,0,1,1.46,0h0a1.06,1.06,0,0,1,0,1.46h0a1,1,0,0,1-.73.3h0A1,1,0,0,1,97.41,57.19ZM72.83,53.8a1,1,0,0,1,.37-1.42h0a1,1,0,0,1,1.41.37h0a1,1,0,0,1-.37,1.42h0a1.09,1.09,0,0,1-.53.13h0A1,1,0,0,1,72.83,53.8Zm27.26.34a1,1,0,0,1-.38-1.41h0a1,1,0,0,1,1.41-.38h0a1,1,0,0,1,.38,1.41h0a1,1,0,0,1-.89.52h0A1.07,1.07,0,0,1,100.09,54.14ZM71.17,49.8a1,1,0,0,1,.72-1.27h0a1,1,0,0,1,1.27.74h0a1,1,0,0,1-.74,1.26h0a.75.75,0,0,1-.26,0h0A1,1,0,0,1,71.17,49.8Zm30.71.7a1,1,0,0,1-.72-1.26h0a1,1,0,0,1,1.26-.74h0a1,1,0,0,1,.73,1.27h0a1,1,0,0,1-1,.77h0A.93.93,0,0,1,101.88,50.5Zm-31.28-5a1,1,0,0,1,1-1h0a1,1,0,0,1,1,1h0a1,1,0,0,1-1,1h0A1,1,0,0,1,70.6,45.52Zm31.05,0v0h0v0h0a1,1,0,0,1,1-1h0a1,1,0,0,1,1,1h0v0h0v0h0a1,1,0,0,1-1,1h0A1,1,0,0,1,101.65,45.48Zm-29.77-3a1,1,0,0,1-.74-1.27h0a1,1,0,0,1,1.26-.73h0a1,1,0,0,1,.75,1.27h0a1.06,1.06,0,0,1-1,.76h0A1.15,1.15,0,0,1,71.88,42.5Zm29.26-.83a1,1,0,0,1,.72-1.25h0a1,1,0,0,1,1.27.72h0a1,1,0,0,1-.72,1.27h0a1.24,1.24,0,0,1-.27,0h0A1,1,0,0,1,101.14,41.67Zm-28-3a1,1,0,0,1-.39-1.4h0a1,1,0,0,1,1.41-.38h0a1,1,0,0,1,.38,1.41h0a1.05,1.05,0,0,1-.9.52h0A1,1,0,0,1,73.18,38.64Zm26.51-.45h0a1,1,0,0,1,.37-1.4h0a1,1,0,0,1,1.4.37h0a1,1,0,0,1-.37,1.41h0a1,1,0,0,1-.51.13h0A1,1,0,0,1,99.69,38.19ZM75.41,35.27a1.05,1.05,0,0,1,0-1.47h0a1,1,0,0,1,1.46,0h0a1,1,0,0,1,0,1.46h0a1.07,1.07,0,0,1-.73.31h0A1.11,1.11,0,0,1,75.41,35.27Zm22-.07h0a1,1,0,0,1,0-1.46h0a1,1,0,0,1,1.45,0h0a1,1,0,0,1,0,1.46h0a1.06,1.06,0,0,1-.73.3h0A1,1,0,0,1,97.37,35.2ZM78.46,32.58a1.06,1.06,0,0,1,.37-1.42h0a1,1,0,0,1,1.41.37h0A1,1,0,0,1,79.87,33h0a1.06,1.06,0,0,1-.51.14h0A1,1,0,0,1,78.46,32.58Zm15.9.33A1,1,0,0,1,94,31.49h0a1,1,0,0,1,1.41-.38h0a1,1,0,0,1,.38,1.41h0a1.05,1.05,0,0,1-.9.52h0A1,1,0,0,1,94.36,32.91ZM82.1,30.77a1,1,0,0,1,.72-1.27h0a1,1,0,0,1,1.27.72h0a1,1,0,0,1-.73,1.27h0a1.24,1.24,0,0,1-.27,0h0A1,1,0,0,1,82.1,30.77Zm8.76.7h0a1,1,0,0,1-.73-1.26h0a1,1,0,0,1,1.26-.73h0a1,1,0,0,1,.74,1.26h0a1,1,0,0,1-1,.77h0A1.18,1.18,0,0,1,90.86,31.47ZM86.07,30a1.05,1.05,0,0,1,1-1h0a1,1,0,0,1,1,1h0a1,1,0,0,1-1,1h0A1,1,0,0,1,86.07,30Z" transform="translate(-7.98 -9.12)"/></svg>